# xmcd
#
# Track frame offsets: 
#        210
#        22377
#        42202
#        61422
#        80272
#        97360
#        116405
#        131535
#
# Disc length: 2016 seconds
#
# Revision: 2
# Processed by: cddbd v1.5.2PL0 Copyright (c) Steve Scherf et al.
# Submitted via: ExactAudioCopy v1.3
#
DISCID=6c07de08
DTITLE=Game - Game
DYEAR=1991
DGENRE=R&B
TTITLE0=U Turn Me On
TTITLE1=Here It Comes
TTITLE2=Get U Down
TTITLE3=All Night All Day
TTITLE4=No Exceptions
TTITLE5=U And I
TTITLE6=She's All I Need
TTITLE7=I Need U
EXTD=
EXTT0=
EXTT1=
EXTT2=
EXTT3=
EXTT4=
EXTT5=
EXTT6=
EXTT7=
PLAYORDER=
